<?xml version="1.0" encoding="UTF-8"?>
<svg id="Layer_2" data-name="Layer 2" xmlns="http://www.w3.org/2000/svg" viewBox="0 0 67.05 54.62">
  <defs>
    <style>
      .cls-1 {
        fill: #d81f26;
      }

      .cls-2 {
        fill: #717171;
        fill-rule: evenodd;
      }
    </style>
  </defs>
  <g id="Layer_1-2" data-name="Layer 1">
    <rect class="cls-1" y="43.35" width="36.47" height="10.59" rx="3.98" ry="3.98"/>
    <path class="cls-1" d="m3.98,21.68h30.08c2.19,0,3.97,1.78,3.97,3.97v2.64c0,2.19-1.78,3.98-3.98,3.98H3.98C1.78,32.26,0,30.48,0,28.29v-2.63C0,23.46,1.78,21.68,3.98,21.68Z"/>
    <path class="cls-2" d="m67.05,4.45v1.68c0,2.46-1.99,4.45-4.45,4.45h-8.09v24.95c0,2.46-1.99,4.45-4.45,4.45h-1.68c-2.46,0-4.45-1.99-4.45-4.45V10.59h-18.67c-2.46,0-4.45-1.99-4.45-4.45v-1.68c0-2.46,1.99-4.45,4.45-4.45h37.35c2.46,0,4.45,2,4.45,4.45Z"/>
    <rect class="cls-1" x=".98" y="0" width="15.49" height="10.59" rx="3.98" ry="3.98"/>
    <path class="cls-2" d="m55.19,48.64c0,3.3-2.68,5.98-5.98,5.98s-5.98-2.68-5.98-5.98,2.68-5.98,5.98-5.98,5.98,2.68,5.98,5.98Z"/>
  </g>
</svg>