<?xml version="1.0" encoding="UTF-8"?>
<svg id="Layer_2" data-name="Layer 2" xmlns="http://www.w3.org/2000/svg" viewBox="0 0 181.46 181.46">
  <defs>
    <style>
      .cls-1 {
        fill: #fff;
      }

      .cls-2 {
        fill: none;
        stroke: #fff;
        stroke-miterlimit: 10;
        stroke-width: 2px;
      }

      .cls-3 {
        fill: #dc3024;
      }
    </style>
  </defs>
  <g id="Layer_1-2" data-name="Layer 1">
    <g>
      <circle class="cls-3" cx="90.73" cy="90.73" r="90.73"/>
      <circle class="cls-2" cx="90.73" cy="90.73" r="80.66"/>
      <g>
        <path class="cls-1" d="m138.14,116.3v-3.65h-1.51c-31.34,0-62.68,0-94.03,0-.42,0-.84.02-1.25-.01-1.02-.09-1.72-.82-1.74-1.77-.02-1,.7-1.8,1.78-1.85,1.25-.05,2.5-.01,3.89-.01.31-2.28.62-4.52.94-6.76.15-1.05.23-2.12.48-3.15.73-2.96,2.54-5.05,5.32-6.29,3.5-1.56,7-3.13,10.52-4.66.65-.28.87-.64.9-1.35.07-1.53-.13-2.81-1.32-4-1.33-1.33-1.88-3.16-2.27-5.02-.14-.67-.65-1.35-1.16-1.85-2.35-2.26-3.94-4.89-4.37-8.18-.72-5.54.7-10.16,5.55-13.39,1.22-.81,2.51-1.09,3.9-.72.56.15.86.1,1.25-.37,1.49-1.82,3.45-2.61,5.79-2.71,4.85-.2,9.05,1.16,12.45,4.78,4.89,5.2,5.55,15.1-.43,20.41-.83.73-1.3,1.56-1.49,2.69-.35,2.07-1.39,3.84-2.87,5.34-.43.43-.81,3.46-.45,3.9.2.24.57.36.88.5,3.16,1.41,6.28,2.89,9.48,4.19,3.88,1.58,6.19,4.27,6.59,8.5.02.23.07.45.12.67,0,.03.04.06.09.14h3.97c.68-2.06,1.38-4.18,2.07-6.29.71-2.17,1.4-4.34,2.11-6.5.46-1.41.95-1.77,2.4-1.77,9.47,0,18.94,0,28.41,0,1.95,0,2.68,1.03,2.06,2.9-1.94,5.8-3.91,11.59-5.86,17.38-.17.5-.32,1-.52,1.63,3.15,0,6.19,0,9.22,0,2.35,0,2.82.46,2.82,2.77,0,1.94,0,3.88,0,5.82,0,1.72-.62,2.35-2.32,2.36-.95,0-1.9.01-2.85.02-.07,0-.13.06-.31.13,0,2.26,0,4.57,0,6.88,0,1.79,0,3.58,0,5.36,0,1.35-.69,2.17-1.79,2.2-1.14.02-1.85-.82-1.86-2.24,0-4.07,0-8.13,0-12.36h-1.49c-29.59,0-59.18,0-88.78,0-.42,0-.85.04-1.25-.03-.98-.18-1.58-.79-1.57-1.8,0-1.01.6-1.62,1.58-1.79.41-.07.83-.03,1.25-.03,31.38,0,62.76,0,94.14,0h1.54Zm-74.41-24.77c-3.71,1.67-7.36,3.26-10.96,4.95-1.33.62-2.28,1.77-2.53,3.21-.53,3.05-.87,6.13-1.3,9.23h7.03c.19-2.79.57-3.61,1.8-3.54,2.37.14,1.79,2.08,1.94,3.57h21.88c0-1.21-.02-2.37,0-3.53.04-2.14,1.54-3.65,3.66-3.71.57-.02,1.14,0,1.71,0,1.46,0,2.92,0,4.39,0-.14-2.88-1.4-4.76-3.95-5.76-1.2-.47-2.36-1.04-3.54-1.57-2.11-.94-4.21-1.87-6.31-2.81-3.1,6.27-10.97,5.97-13.83-.02Zm68.24-.7c-.24-.06-.31-.09-.39-.09-8.06,0-16.12,0-24.18-.03-.82,0-.92.47-1.1,1.01-1.79,5.4-3.59,10.81-5.38,16.21-.11.32-.19.64-.29.98.18.04.29.08.4.08,8.06,0,16.12.02,24.18-.03.33,0,.83-.45.95-.8.79-2.18,1.49-4.38,2.22-6.58,1.19-3.56,2.37-7.12,3.58-10.75Zm-50.38-19.37c2.29-3.14,2.43-7.88.53-11.44-2.27-4.26-7.47-6.72-12.18-5.75-1.62.33-2.76,1.62-2.95,3.34-.14,1.31-.7,1.98-1.7,2.06-.98.07-1.6-.48-1.95-1.8-.21-.79-.72-1.03-1.35-.59-1.94,1.36-3.72,2.95-3.94,5.46-.17,1.87-.06,3.79.17,5.66.12.97.75,1.88,1.16,2.82.11-.04.21-.07.32-.11,0-1.17,0-2.34,0-3.5,0-1.82.57-2.39,2.35-2.46.6-.02,1.21-.1,1.81-.21.8-.14,1.22-.62,1.33-1.47.23-1.84,1.58-2.54,3.07-1.46,3.36,2.42,7.06,3.4,11.16,3.17,1.53-.09,2.17.66,2.19,2.24.01,1.24,0,2.48,0,4.03Zm-18.26-2.61c0,2.49-.02,4.88,0,7.27.05,3.88,2.98,7.03,6.76,7.29,3.82.26,7.28-2.36,7.7-6.23.3-2.73.06-5.51.06-8.17-1.74-.24-3.46-.33-5.09-.75-1.62-.42-3.16-1.18-4.78-1.81-1.13,1.44-2.69,2.21-4.66,2.4Zm3.66,17.59c0,1.03-.04,1.87,0,2.7.11,1.86,1.66,3.35,3.5,3.41,1.85.07,3.53-1.3,3.74-3.15.11-.93.02-1.89.02-2.93-2.42.76-4.78.81-7.26-.03Zm18.26,18.94c0,.68-.04,1.28,0,1.88.08.95.62,1.63,1.55,1.68,1.81.09,3.62.03,5.5.03-.17-1.26-.32-2.41-.47-3.59h-6.58Zm10.4.02c.12,1.07.22,2.08.35,3.07.02.18.24.49.33.47.21-.03.5-.18.57-.36.39-1.04.72-2.1,1.08-3.19h-2.33Z"/>
        <path class="cls-1" d="m96.2,79.83c-3.64-.19-3.65-.2-3.65-3.76,0-8.86,0-17.72,0-26.58,0-2.03.54-2.58,2.55-2.58,12.92,0,25.85,0,38.77,0,1.93,0,2.5.57,2.5,2.52,0,9.28,0,18.55,0,27.83,0,1.94-.57,2.52-2.51,2.52-8.89,0-17.79.01-26.68-.02-.79,0-1.34.23-1.88.79-1.85,1.91-3.75,3.77-5.62,5.67-.66.66-1.36,1.12-2.33.7-.95-.41-1.17-1.2-1.15-2.15.03-1.63,0-3.25,0-4.95Zm3.74.99c1.29-1.32,2.46-2.45,3.56-3.65.7-.76,1.48-1.06,2.51-1.05,8.48.03,16.95.02,25.43.02h1.19v-25.48h-36.38v25.37q3.31.46,3.68,4.8Z"/>
        <path class="cls-1" d="m70.64,79.78c-1.65-.08-3.01-.66-4.07-1.85-.77-.87-.77-1.93-.03-2.64.73-.71,1.68-.7,2.55.03,1.36,1.14,1.89,1.12,3.19-.11.83-.78,1.78-.84,2.55-.17.78.68.84,1.74.11,2.64-1.11,1.39-2.59,2.04-4.29,2.1Z"/>
        <path class="cls-1" d="m121.77,68.71c-.09-1.91-.03-3.77,1.41-5.35-1.38-1.53-1.55-3.4-1.4-5.36-.32-.13-.6-.22-.85-.37-.79-.44-1.15-1.13-.93-2,.22-.92.88-1.39,1.83-1.41,1.81-.04,3.46,1.55,3.57,3.46.04.61,0,1.22.02,1.82.04,1.2.57,1.8,1.75,2.01,1.26.22,1.91.87,1.89,1.87-.02.97-.66,1.58-1.86,1.79-1.24.21-1.75.81-1.78,2.09-.01.57.02,1.14-.01,1.71-.09,1.71-1.32,3.12-2.97,3.44-1.13.22-2.08-.26-2.4-1.22-.32-.96.18-1.84,1.29-2.32.13-.06.27-.1.45-.16Z"/>
        <path class="cls-1" d="m105.72,63.34c1.46,1.62,1.51,3.49,1.44,5.28.49.29,1.09.45,1.28.81.28.55.46,1.29.34,1.87-.16.82-.91,1.16-1.75,1.16-1.73,0-3.33-1.49-3.5-3.29-.04-.38-.02-.76-.02-1.14,0-2.25-.04-2.28-2.26-2.93-.85-.25-1.37-.84-1.37-1.75,0-.96.54-1.56,1.45-1.8,2.05-.53,2.18-.69,2.18-2.88,0-2.32.73-3.62,2.37-4.23,1.4-.52,2.56-.14,2.98.98.4,1.07-.17,1.95-1.7,2.54.07,1.89.03,3.79-1.44,5.38Z"/>
      </g>
    </g>
  </g>
</svg>