<?xml version="1.0" encoding="UTF-8"?>
<svg id="Layer_2" data-name="Layer 2" xmlns="http://www.w3.org/2000/svg" viewBox="0 0 181.46 181.46">
  <defs>
    <style>
      .cls-1 {
        fill: #fff;
      }

      .cls-2 {
        fill: none;
        stroke: #fff;
        stroke-miterlimit: 10;
        stroke-width: 2px;
      }

      .cls-3 {
        fill: #dc3024;
      }
    </style>
  </defs>
  <g id="Layer_1-2" data-name="Layer 1">
    <circle class="cls-3" cx="90.73" cy="90.73" r="90.73"/>
    <circle class="cls-2" cx="90.73" cy="90.73" r="80.66"/>
    <g>
      <path class="cls-1" d="m90.8,93.43c14.94,0,29.88,0,44.82,0,2.02,0,2.46.44,2.46,2.42,0,1.7-.02,3.41,0,5.11.02,1.01-.42,1.63-1.35,1.98-1.92.72-3.84,1.43-5.72,2.22-.4.17-.78.63-.96,1.04-1.26,2.92-2.48,5.87-3.66,8.82-.17.42-.22,1.01-.06,1.41.77,1.89,1.61,3.76,2.47,5.62.42.92.28,1.66-.43,2.36-2.78,2.77-5.56,5.54-8.33,8.33-.7.7-1.44.86-2.36.43-1.86-.86-3.72-1.7-5.62-2.47-.4-.16-.99-.1-1.4.06-2.92,1.17-5.81,2.42-8.74,3.58-.59.23-.98.47-1.21,1.11-.66,1.86-1.41,3.69-2.1,5.55-.37,1.01-1.03,1.47-2.12,1.46-3.86-.03-7.71-.03-11.57,0-1.1,0-1.74-.48-2.11-1.48-.68-1.85-1.37-3.71-2.14-5.53-.18-.43-.65-.86-1.09-1.05-2.92-1.26-5.86-2.48-8.82-3.65-.41-.16-1-.19-1.4-.03-1.86.75-3.71,1.57-5.53,2.42-1,.47-1.77.28-2.52-.49-2.71-2.74-5.43-5.47-8.18-8.18-.78-.77-.9-1.54-.44-2.53.84-1.79,1.59-3.62,2.43-5.41.26-.56.21-.97-.03-1.53-1.26-2.89-2.46-5.8-3.62-8.72-.24-.61-.51-.96-1.13-1.19-1.83-.66-3.62-1.41-5.45-2.06-1.11-.4-1.57-1.11-1.52-2.29.06-1.67.01-3.33.02-5,0-1.8.49-2.3,2.27-2.3,15.04,0,30.09,0,45.13,0Zm-44.07,3.39c0,.88.03,1.71-.01,2.53-.03.57.15.86.72,1.06,1.83.66,3.62,1.4,5.44,2.08.78.29,1.24.79,1.45,1.62.91,3.66,2.32,7.12,4.29,10.34.44.72.48,1.4.12,2.17-.81,1.76-1.58,3.55-2.39,5.32-.23.51-.21.84.22,1.26,2.04,1.99,4.06,4,6.04,6.05.46.47.81.46,1.35.21,1.66-.78,3.37-1.47,5.03-2.27.91-.44,1.68-.42,2.55.11,3.13,1.91,6.49,3.31,10.06,4.16.94.23,1.49.76,1.82,1.66.61,1.7,1.31,3.36,1.91,5.06.24.68.56.97,1.33.95,2.71-.06,5.42-.05,8.13,0,.73.01,1.11-.17,1.36-.9.59-1.74,1.31-3.43,1.94-5.16.31-.86.85-1.37,1.75-1.59,3.64-.88,7.05-2.31,10.25-4.25.72-.44,1.4-.49,2.17-.14,1.76.81,3.56,1.56,5.31,2.39.58.28.92.16,1.34-.27,1.97-2.01,3.96-4.01,5.97-5.97.46-.45.48-.8.23-1.35-.81-1.73-1.54-3.49-2.35-5.22-.38-.81-.33-1.51.13-2.26,1.92-3.17,3.35-6.55,4.22-10.15.23-.94.75-1.5,1.65-1.83,1.76-.63,3.51-1.31,5.24-2.02.3-.12.7-.44.72-.7.09-.95.03-1.91.03-2.87h-19.78c-1.24,13.44-12,22.01-23.16,22.48-12.77.54-24.19-9.06-25.33-22.5h-19.74Zm64.81.02h-41.61c.74,10.41,9.74,19.17,20.81,19.16,11.18,0,20.07-8.85,20.8-19.16Z"/>
      <path class="cls-1" d="m54,74.82c-4.52-4.32-3.83-10.33-.47-13.67,3.54-3.53,9.22-3.62,12.91-.25,3.23,2.96,4.75,9.03-.18,13.93.29.15.57.29.84.42,5.36,2.58,8.55,6.81,9.61,12.65.36,1.96-.25,2.66-2.21,2.66-9.59,0-19.17,0-28.76,0-2,0-2.57-.68-2.23-2.63,1.07-6.02,4.41-10.29,9.97-12.84.15-.07.3-.16.52-.27Zm-6.84,12.36h25.85c-.36-5-6.36-9.82-12.54-10.09-6.12-.27-12.36,4.4-13.31,10.09Zm12.97-13.47c3.3-.02,5.98-2.69,5.98-5.96,0-3.31-2.75-6.02-6.07-5.99-3.27.03-5.95,2.76-5.92,6.03.03,3.29,2.72,5.94,6.01,5.93Z"/>
      <path class="cls-1" d="m138.08,70.11c0,6.05,0,12.09,0,18.14,0,1.81-.48,2.3-2.26,2.31-2.22,0-4.45,0-6.67,0-1.45,0-2.03-.56-2.04-2.02-.01-12.27-.01-24.53,0-36.8,0-1.5.61-2.06,2.12-2.07,2.26,0,4.52-.01,6.78,0,1.49,0,2.07.59,2.08,2.09,0,6.12,0,12.23,0,18.35Zm-7.57-17.08v34.11h4.15v-34.11h-4.15Z"/>
      <path class="cls-1" d="m126.43,42.36c-.48,0-.97.03-1.45,0-.92-.06-1.59-.72-1.63-1.58-.04-.85.6-1.67,1.5-1.7,2.15-.06,4.31-.07,6.46,0,.94.03,1.55.87,1.39,1.85-.34,2.05-.74,4.1-1.19,6.13-.2.92-1.03,1.39-1.89,1.23-.87-.16-1.39-.85-1.35-1.82.01-.27.06-.54.11-1.01-.41.36-.69.6-.96.85-3.19,2.9-6.39,5.78-9.55,8.71-.86.8-1.69.9-2.74.44-4.67-2.04-9.36-4.03-14.03-6.08-.59-.26-.97-.21-1.48.18-4.74,3.63-9.51,7.23-14.26,10.84-.28.21-.55.43-.86.58-.8.38-1.52.18-2.03-.51-.49-.66-.45-1.37.06-2.02.17-.21.4-.38.62-.54,5.11-3.89,10.24-7.76,15.33-11.67.93-.72,1.77-.85,2.87-.36,4.57,2.01,9.17,3.94,13.75,5.94.66.29,1.07.28,1.62-.24,2.97-2.77,6-5.49,9-8.22.28-.25.57-.47.86-.71-.05-.08-.11-.17-.16-.25Z"/>
      <path class="cls-1" d="m105.54,75.17c0,4.41,0,8.82,0,13.24,0,1.59-.54,2.14-2.11,2.15-2.29,0-4.59.01-6.88,0-1.38,0-1.99-.58-1.99-1.96-.01-8.96-.01-17.92,0-26.89,0-1.42.63-2.01,2.07-2.01,2.29-.01,4.59-.01,6.88,0,1.43,0,2.03.61,2.03,2.04,0,4.48,0,8.96,0,13.44Zm-7.58-12.12v24.1h4.16v-24.1h-4.16Z"/>
      <path class="cls-1" d="m121.81,77.76c0,3.58,0,7.16,0,10.73,0,1.51-.56,2.06-2.08,2.06-2.29,0-4.59.01-6.88,0-1.39,0-2-.57-2.01-1.94-.02-7.26-.02-14.52,0-21.78,0-1.31.64-1.92,1.94-1.93,2.36-.02,4.72-.02,7.09,0,1.34.01,1.94.64,1.94,2.01,0,3.61,0,7.23,0,10.84Zm-7.58-9.49v18.88h4.16v-18.88h-4.16Z"/>
      <path class="cls-1" d="m89.28,81.55c0,2.33,0,4.65,0,6.98,0,1.44-.58,2.02-2.02,2.02-2.33.01-4.65.01-6.98,0-1.38,0-1.98-.58-1.98-1.97-.02-4.65-.02-9.3,0-13.96,0-1.44.61-2.03,2.03-2.04,2.33-.01,4.65-.01,6.98,0,1.36,0,1.96.62,1.97,1.98.01,2.33,0,4.65,0,6.98Zm-7.61,5.6h4.21v-11.16h-4.21v11.16Z"/>
    </g>
  </g>
</svg>