<?xml version="1.0" encoding="UTF-8"?>
<svg id="Layer_2" data-name="Layer 2" xmlns="http://www.w3.org/2000/svg" viewBox="0 0 181.46 181.46">
  <defs>
    <style>
      .cls-1 {
        fill: #fff;
      }

      .cls-2 {
        fill: none;
        stroke: #fff;
        stroke-miterlimit: 10;
        stroke-width: 2px;
      }

      .cls-3 {
        fill: #dc3024;
      }
    </style>
  </defs>
  <g id="Layer_1-2" data-name="Layer 1">
    <g>
      <circle class="cls-3" cx="90.73" cy="90.73" r="90.73"/>
      <circle class="cls-2" cx="90.73" cy="90.73" r="80.66"/>
      <g>
        <path class="cls-1" d="m122.44,129.2c2,0,3.92,0,5.84,0,1.7,0,2.29.6,2.3,2.31.01,1.96.02,3.93,0,5.89-.01,1.62-.63,2.22-2.27,2.22-26.03,0-52.05,0-78.08,0-1.73,0-2.29-.55-2.29-2.27,0-2.04-.01-4.07,0-6.11.01-1.38.62-2,1.99-2.03,1.09-.03,2.18-.05,3.27,0,.82.05,1.19-.17,1.39-1.05,1.44-6.18,2.95-12.35,4.47-18.52.2-.8.44-1.7.97-2.27,1.63-1.78,3.31-3.53,5.17-5.05.76-.62,2.03-.8,3.07-.83,3.56-.1,7.12-.04,10.69-.04.39,0,.78,0,1.31,0,0-1.74.02-3.4-.02-5.06,0-.24-.21-.54-.41-.7-3.69-2.89-5.87-6.75-7.25-11.14-.14-.45-.24-.81-.9-.85-3.4-.2-5.28-1.61-5.96-4.38-.65-2.65.38-4.82,3.21-6.6-.33-.96-.68-1.93-1.01-2.92-1.01-3.09-1.65-6.25-1.63-9.51.03-5.5,2.09-10.07,6.47-13.44,5.66-4.37,11.99-6.09,19.04-4.3,3.1.79,5.57,2.57,7.35,5.29.19.3.65.56,1.01.59,5.8.56,9.66,4.35,10.4,10.24.61,4.89-.29,9.46-2.88,13.68-.05.09-.08.19-.15.35,1.75.86,3.04,2.13,3.45,4.08.77,3.61-1.8,6.8-5.62,6.92-.82.02-1.16.24-1.42,1.05-1.34,4.28-3.46,8.06-7.06,10.89-.22.18-.44.52-.45.79-.04,1.63-.02,3.26-.02,5.03.69,0,1.3-.01,1.9,0,1.21.03,1.95.69,1.95,1.74,0,1.05-.73,1.74-1.94,1.74-6.18.01-12.36,0-18.54,0-3.74,0-7.49,0-11.23,0-1.97,0-2.78.8-2.78,2.79,0,6.8,0,13.59-.01,20.39,0,.65.02,1.09.9,1.08,5.16-.04,10.32-.02,15.49-.02.14,0,.28-.03.55-.07.2-2.16.4-4.32.6-6.48.06-.69.11-1.38.2-2.06.14-1.06.73-1.64,1.8-1.66,2.33-.03,4.65-.03,6.98,0,1.21.02,1.79.69,1.91,2.06.23,2.68.47,5.35.71,8.15.36.02.71.06,1.06.06,4.91,0,9.81-.02,14.72.02.96,0,1.28-.25,1.22-1.22-.08-1.38-.04-2.76-.01-4.14.02-1.19.73-1.93,1.78-1.9,1,.02,1.68.74,1.7,1.88.03,1.74,0,3.48,0,5.29h3.42c-.52-2.18-1.03-4.32-1.53-6.46-.2-.85-.41-1.69-.6-2.54-.29-1.3.19-2.23,1.26-2.46.99-.22,1.79.4,2.11,1.69.72,2.89,1.41,5.78,2.11,8.67.09.35.18.7.3,1.19Zm-25.24-69.07c-1.99,2.77-4.81,4.03-7.87,4.91-.52.15-1.05.31-1.58.41-3.06.6-6.14,1.16-9.2,1.77-2.89.58-4.18,2.02-4.37,4.88-.05.79,0,1.6.1,2.39.22,1.73.47,3.45.76,5.17.75,4.36,2.11,8.47,5.25,11.76,2.68,2.8,5.92,4.18,9.84,3.45,3.04-.56,5.38-2.29,7.27-4.67,2.43-3.07,3.7-6.65,4.23-10.48.29-2.08.4-4.19.52-6.29.1-1.8.32-3.64.1-5.41-.4-3.32-2.03-6-5.05-7.9Zm-25.85,8.46c1.22-2.89,3.6-4.14,6.43-4.73,1.42-.3,2.87-.46,4.28-.81,3.02-.74,6.06-1.47,9.03-2.39,1.59-.49,2.81-1.63,3.56-3.19.69-1.44,1.44-1.71,2.9-1.02,3.96,1.88,6.61,4.9,7.81,9.14.23.8.37,1.62.55,2.42,1.3-3.21,1.69-6.49,1.03-9.84-.69-3.56-2.54-5.36-6.11-6.06-.71-.14-1.44-.19-2.16-.2-.97,0-1.66-.36-2.06-1.28-1.13-2.59-3.19-4.11-5.86-4.79-4.28-1.09-8.37-.33-12.29,1.5-3.73,1.75-6.61,4.38-7.92,8.39-1.41,4.34-.61,8.59.81,12.85Zm55.69,64.17H51.49v3.29h75.55v-3.29Zm-64.78-20.8c-.06,0-.12,0-.19,0-1.37,5.69-2.74,11.39-4.13,17.14h4.31v-17.15Zm29.16,17.17c-.21-2.3-.41-4.49-.61-6.67h-3.98c-.2,2.23-.39,4.42-.59,6.67h5.18Zm1.45-27.71v-3.59c-3.05,1.06-6.03.97-9.02.05v3.54h9.02Zm12.23-21.21c1.74-.13,2.54-.88,2.51-2.24-.02-1.23-.75-1.97-2.09-2-.14,1.37-.28,2.76-.43,4.23Zm-34.35-4.29c-1.5.76-1.91,1.6-1.6,2.73.28,1,1.09,1.52,2.52,1.48-.3-1.38-.6-2.72-.93-4.21Z"/>
        <path class="cls-1" d="m108.8,115.71c-.81,0-1.49.01-2.17,0-2.79-.05-4.55-1.81-4.56-4.59-.01-5.09-.01-10.17,0-15.26,0-2.67,1.7-4.53,4.37-4.55,7.56-.06,15.11-.06,22.67,0,2.74.02,4.4,1.85,4.41,4.62.01,5.05.01,10.1,0,15.15,0,2.86-1.74,4.61-4.62,4.63-3.63.02-7.27-.02-10.9.04-.55,0-1.2.27-1.62.63-1.51,1.3-2.96,2.68-4.4,4.07-.64.62-1.34.87-2.17.51-.8-.35-1.04-1.03-1.02-1.87.03-1.05,0-2.1,0-3.37Zm3.48-.36c.83-.75,1.49-1.26,2.03-1.88.87-.98,1.9-1.29,3.19-1.27,3.7.06,7.41,0,11.11.03,1,0,1.44-.32,1.43-1.38-.04-4.9-.03-9.8,0-14.71,0-.98-.36-1.38-1.34-1.38-7.26.01-14.53.01-21.79,0-.94,0-1.39.32-1.38,1.34.03,4.94.03,9.88,0,14.82,0,.93.36,1.33,1.28,1.31,1.2-.03,2.4-.04,3.59.02,1.19.05,1.77.67,1.86,1.85.02.32,0,.65,0,1.25Z"/>
        <path class="cls-1" d="m120.82,99.24c-.02.1-.04.28-.09.45-.83,2.85-1.67,5.71-2.5,8.56-.25.87-.83,1.37-1.74,1.36-.86-.01-1.44-.49-1.64-1.33-.07-.3-.04-.65.04-.95.81-2.86,1.64-5.71,2.48-8.56.28-.95.94-1.46,1.96-1.34.87.1,1.5.87,1.49,1.82Z"/>
        <path class="cls-1" d="m112.38,103.52c.58.68,1.14,1.3,1.66,1.95.69.88.61,1.88-.16,2.52-.75.62-1.7.57-2.43-.22-.93-1.01-1.83-2.06-2.7-3.13-.6-.74-.57-1.56.03-2.29.85-1.04,1.72-2.06,2.63-3.05.75-.83,1.76-.89,2.51-.22.71.63.78,1.59.15,2.45-.26.35-.56.66-.84,1-.26.3-.51.61-.85,1.01Z"/>
        <path class="cls-1" d="m123.23,103.51c-.58-.68-1.14-1.3-1.65-1.95-.73-.92-.65-1.8.16-2.5.8-.69,1.71-.62,2.49.25.88.97,1.72,1.97,2.56,2.97.68.81.66,1.66-.02,2.47-.84,1-1.68,2-2.56,2.97-.77.84-1.78.91-2.51.24-.76-.7-.81-1.66-.11-2.53.52-.65,1.08-1.26,1.64-1.92Z"/>
      </g>
    </g>
  </g>
</svg>