<?xml version="1.0" encoding="UTF-8"?>
<svg id="Layer_2" data-name="Layer 2" xmlns="http://www.w3.org/2000/svg" viewBox="0 0 181.46 181.46">
  <defs>
    <style>
      .cls-1 {
        fill: #fff;
      }

      .cls-2 {
        fill: none;
        stroke: #fff;
        stroke-miterlimit: 10;
        stroke-width: 2px;
      }

      .cls-3 {
        fill: #dc3024;
      }
    </style>
  </defs>
  <g id="Layer_1-2" data-name="Layer 1">
    <circle class="cls-3" cx="90.73" cy="90.73" r="90.73"/>
    <g>
      <path class="cls-1" d="m75.43,97.09c-1.08-2.78-2.12-5.49-3.19-8.18-.11-.28-.4-.51-.64-.71-1.65-1.34-3.3-2.68-4.98-3.99-2-1.56-3-3.54-2.43-6.09.56-2.52,2.21-4,4.74-4.51.09-.02.18-.07.35-.14-.14-.32-.27-.64-.42-.94-1.14-2.28-2.28-4.56-3.43-6.83-.98-1.94-1.1-3.93-.4-5.99.88-2.6-.16-4.67-2.77-5.57-1.08-.37-2.21-.63-3.24-1.11-.52-.24-1.12-.84-1.18-1.34-.06-.49.38-1.28.83-1.57,6.6-4.16,13.79-6.71,21.54-7.62,6.94-.82,13.94-.58,20.89-.33,10.48.39,17.65,11.02,14.45,21.02-.99,3.08-2.17,6.09-3.27,9.13-.12.34-.24.67-.39,1.09.34.09.64.17.94.24,2.28.52,3.79,1.91,4.4,4.14.63,2.28.01,4.31-1.77,5.86-1.8,1.57-3.71,3-5.56,4.51-.27.22-.56.48-.68.79-1.06,2.66-2.09,5.34-3.15,8.06.2,0,.54.04.88.04,3.89,0,7.79,0,11.68,0,4.91,0,8.25,3.35,8.26,8.27,0,1.73-.03,3.47.03,5.2.01.32.3.79.59.93,6.44,3.15,10.41,8.23,11.63,15.29.38,2.17.25,4.43.32,6.65.04,1.44.02,2.88,0,4.32-.02,1.16-.61,1.72-1.77,1.76-.23,0-.46,0-.69,0-30.83,0-61.66,0-92.49,0-2.08,0-2.49-.38-2.46-2.44.04-3.14-.15-6.31.22-9.41.86-7.29,4.77-12.59,11.31-15.9.79-.4,1.08-.79,1.06-1.68-.04-2.15-.15-4.34.15-6.46.55-3.85,3.79-6.49,7.68-6.52,4.35-.03,8.7,0,12.98,0Zm48.3,39.24c0-.38,0-.67,0-.96,0-10.01,0-20.02,0-30.03,0-3.19-1.95-5.11-5.16-5.11-18.55,0-37.11,0-55.66,0-3.26,0-5.18,1.92-5.18,5.19,0,9.98,0,19.96,0,29.94,0,.32.03.63.05.98h65.95Zm-12.6-70.1c.43-1.19.89-2.38,1.29-3.58,2.91-8.61-3.33-17.35-12.43-17.4-4.55-.03-9.1-.03-13.65,0-6.62.04-12.99,1.36-19.09,3.93-1.33.56-2.62,1.21-4,1.86.19.17.23.24.28.25,3.51,1.04,6.1,5.24,4.44,9.63-.29.76-.32,1.82-.03,2.57.77,1.96,1.79,3.83,2.74,5.8,3.58-2.38,7.07-4.69,10.53-7.02,2.67-1.8,5.6-2.82,8.83-2.85,3.34-.03,6.28-1.09,8.84-3.21,1.08-.9,2.18-1.78,3.29-2.64.89-.69,1.82-.63,2.39.26,2.53,3.94,5.77,7.52,6.54,12.43Zm-37.59,10.48c-.04.15-.06.22-.06.28.2,7,2.04,13.54,5.56,19.59.16.27.67.48,1.02.49,7.1.03,14.2.01,21.3.04.61,0,.93-.21,1.22-.73,2.19-3.87,3.78-7.98,4.59-12.35.45-2.39.65-4.83.96-7.3h-3.27c0,1.6.02,3.14,0,4.67-.05,2.63-2.06,4.63-4.7,4.68-1.11.02-2.23.03-3.34,0-2.47-.09-4.43-2.08-4.52-4.55-.02-.55,0-1.09,0-1.66h-3.15c0,.48,0,.91,0,1.33-.03,2.88-2.01,4.86-4.89,4.89-.88,0-1.77,0-2.65,0-3.06-.01-5.02-1.98-5.03-5.04,0-1.43,0-2.86,0-4.34h-3.05Zm0-3.19c.34,0,.67,0,.99,0,4.22,0,8.44,0,12.66,0,1.4,0,1.94.55,1.96,1.97,0,.38,0,.75,0,1.17,1,0,1.84,0,2.69,0,.12,0,.25-.03.45-.06,0-.29,0-.54,0-.79.02-1.87.44-2.28,2.33-2.28,4.09,0,8.18,0,12.27,0h.91c1.05-6.38-.79-11.77-5.01-16.45-.6.48-1.22.96-1.82,1.46-3.19,2.66-6.84,3.99-11,4.01-2.55.01-4.86.87-6.98,2.3-2.66,1.79-5.27,3.65-8.02,5.3-1.34.8-1.8,1.73-1.52,3.16,0,.03.02.06.08.22Zm-19,41.24c-.36.18-.62.29-.87.44-4.3,2.62-7.22,6.35-8.05,11.3-.53,3.16-.32,6.44-.43,9.67,0,.05.08.1.11.14h9.24v-21.55Zm72.36,21.53h9.38c0-2.19.04-4.32,0-6.44-.09-4.43-1.65-8.3-4.65-11.56-1.33-1.44-2.86-2.64-4.72-3.55v21.55Zm-47.17-59.6c0,1.63-.03,3.17.01,4.69.02.92.63,1.51,1.57,1.54,1.04.04,2.09.03,3.13,0,.82-.02,1.46-.48,1.51-1.27.1-1.64.03-3.3.03-4.97h-6.25Zm21.99.04h-6.28c0,1.57-.02,3.07,0,4.57.02.99.61,1.6,1.58,1.63,1.04.04,2.09.04,3.13,0,.93-.04,1.53-.63,1.55-1.56.04-1.53.01-3.06.01-4.64Zm-30.83,6.9c-.23-2.44-.45-4.66-.66-6.89-1.27-.14-2.24.34-2.77,1.36-.5.96-.44,2.16.33,2.92.92.9,1.97,1.67,3.09,2.61Zm40.27-6.91c-.08,1.18-.13,2.28-.23,3.39-.1,1.11-.26,2.21-.43,3.54,1.04-.83,1.88-1.48,2.71-2.17,1.04-.86,1.34-2.02.87-3.15-.47-1.13-1.45-1.69-2.92-1.6Z"/>
      <path class="cls-1" d="m97.01,125.42c-.02,3.46-2.89,6.27-6.36,6.23-3.47-.04-6.25-2.9-6.21-6.38.04-3.41,2.87-6.19,6.31-6.18,3.47,0,6.28,2.85,6.26,6.33Zm-6.29,3.09c1.71,0,3.13-1.39,3.15-3.1.02-1.75-1.42-3.19-3.18-3.17-1.71.01-3.11,1.44-3.1,3.15.01,1.72,1.41,3.12,3.13,3.13Z"/>
      <path class="cls-1" d="m80.23,102.34c.68.7,1.36,1.4,2.03,2.08-1.67,1.65-3.36,3.31-5.1,5.02,1.89,1.84,3.6,3.51,5.36,5.23-.9.85-1.61,1.51-2.38,2.23-.04-.02-.18-.09-.29-.19-1.92-1.91-3.85-3.83-5.76-5.75-.77-.78-.94-1.59-.29-2.26,2.1-2.15,4.26-4.23,6.42-6.36Z"/>
      <path class="cls-1" d="m101.29,117.04c-.76-.77-1.44-1.46-2.12-2.15,1.69-1.67,3.37-3.34,5.1-5.05-1.85-1.83-3.56-3.52-5.3-5.25.86-.81,1.57-1.48,2.34-2.2.13.1.33.25.51.42,1.81,1.8,3.61,3.6,5.41,5.41,1.06,1.06,1.07,1.8.04,2.84-1.97,1.99-3.96,3.97-5.97,5.97Z"/>
      <path class="cls-1" d="m87.28,116.87c-.85-.63-1.63-1.21-2.52-1.87,3.13-4.18,6.24-8.32,9.43-12.57.84.63,1.64,1.23,2.51,1.88-3.15,4.2-6.26,8.35-9.42,12.55Z"/>
    </g>
    <circle class="cls-2" cx="90.73" cy="90.73" r="80.66"/>
  </g>
</svg>