<?xml version="1.0" encoding="UTF-8"?>
<svg id="Layer_2" data-name="Layer 2" xmlns="http://www.w3.org/2000/svg" viewBox="0 0 181.46 181.46">
  <defs>
    <style>
      .cls-1 {
        fill: #fff;
      }

      .cls-2 {
        fill: none;
        stroke: #fff;
        stroke-miterlimit: 10;
        stroke-width: 2px;
      }

      .cls-3 {
        fill: #dc3024;
      }
    </style>
  </defs>
  <g id="Layer_1-2" data-name="Layer 1">
    <circle class="cls-3" cx="90.73" cy="90.73" r="90.73"/>
    <circle class="cls-2" cx="90.73" cy="90.73" r="80.66"/>
    <g>
      <path class="cls-1" d="m93.07,36.27c1.85.42,3.75.71,5.55,1.29,10.99,3.53,18.2,14.08,17.6,25.66-.59,11.42-8.76,21.01-19.99,23.51-.61.14-1.22.52-1.7.94-.88.76-1.65,1.65-2.5,2.46-.89.84-1.85.92-2.6-.02-1.9-2.36-4.42-3.41-7.25-4.34-11.01-3.58-18.09-15.05-16.87-26.48,1.27-11.96,10.78-21.59,22.59-22.84.17-.02.32-.11.49-.17,1.56,0,3.12,0,4.68,0Zm-2.46,50.5c.89-.91,1.5-1.65,2.24-2.24.55-.44,1.23-.87,1.91-.99,9.98-1.83,17.45-10.22,18.06-20.35.84-14.09-11.52-25.39-25.46-23.27-10.15,1.55-17.95,10.04-18.71,20.36-.75,10.13,5.58,19.53,15.35,22.53,2.53.77,5.11,1.23,6.62,3.97Z"/>
      <path class="cls-1" d="m46.49,97.55c0-1.7-.01-3.22,0-4.75.01-1.45.62-2.06,2.09-2.06,11.77,0,23.54,0,35.31,0,2.79,0,5.03,1.22,6.84,3.41,1.5-1.8,3.3-2.98,5.58-3.3.56-.08,1.13-.11,1.69-.11,11.52,0,23.04,0,34.57,0,1.89,0,2.41.51,2.41,2.38,0,1.42,0,2.83,0,4.43,1.04,0,2.05-.01,3.06,0,1.4.02,2.04.63,2.04,2,0,14.54,0,29.07,0,43.61,0,1.39-.63,2-2.02,2.03-.21,0-.43,0-.64,0-31.13,0-62.25,0-93.38,0-2.24,0-2.66-.42-2.66-2.67,0-14.15,0-28.29,0-42.44,0-2.08.47-2.54,2.58-2.54.81,0,1.61,0,2.53,0Zm85.01,37.43v-40.84h-1.24c-10.7,0-21.4,0-32.11,0-3.68,0-5.72,2.04-5.72,5.72,0,11.87,0,23.74,0,35.61v1.29c2.38-1.93,5.01-1.8,7.64-1.8,10.03.02,20.06,0,30.09,0,.42,0,.84,0,1.34,0Zm-42.47,1.75c0-.59,0-.9,0-1.22,0-11.91,0-23.81,0-35.72,0-3.59-2.08-5.64-5.69-5.64-10.74,0-21.47,0-32.21,0-.38,0-.76,0-1.17,0v40.84c.48,0,.9,0,1.32,0,10.21,0,20.41.02,30.62-.02,2.47,0,4.89.05,7.14,1.76Zm-42.54-35.72h-1.63v40.72h43.71c-.61-2.07-2.47-3.34-4.89-3.34-11.48,0-22.96,0-34.44,0-2.36,0-2.74-.39-2.74-2.79,0-11.09,0-22.18,0-33.27,0-.42,0-.83,0-1.31Zm88.49-.04c0,.52,0,.94,0,1.36,0,11.2,0,22.39,0,33.59,0,1.96-.5,2.46-2.44,2.46-8.4,0-16.79,0-25.19,0-3.26,0-6.52-.01-9.78,0-2.22.01-4.13,1.39-4.65,3.32h43.67v-40.73h-1.61Z"/>
      <path class="cls-1" d="m87.41,72.01c-1.41-.05-2.1-1.24-1.58-2.56,1.52-3.85,3.06-7.68,4.6-11.52.67-1.67,1.33-3.35,2.01-5.02.45-1.1,1.33-1.55,2.24-1.21.97.36,1.36,1.33.92,2.45-2.19,5.52-4.41,11.03-6.61,16.54-.32.8-.85,1.29-1.59,1.32Z"/>
      <path class="cls-1" d="m102,61.79c-1.36-1.33-2.64-2.54-3.86-3.8-1-1.04-.71-2.59.59-2.86.55-.12,1.38.12,1.79.51,1.69,1.55,3.3,3.2,4.9,4.85.85.87.85,1.74,0,2.62-1.6,1.65-3.23,3.27-4.88,4.88-.84.82-1.84.82-2.54.09-.69-.72-.64-1.7.19-2.54,1.21-1.23,2.45-2.42,3.79-3.74Z"/>
      <path class="cls-1" d="m79.4,61.8c1.41,1.37,2.67,2.55,3.88,3.79.8.81.82,1.74.16,2.46-.64.69-1.64.79-2.37.09-1.76-1.69-3.48-3.42-5.18-5.17-.71-.73-.69-1.64.03-2.38,1.67-1.73,3.37-3.43,5.1-5.1.73-.71,1.72-.66,2.38,0,.67.67.69,1.6,0,2.38-.61.68-1.28,1.32-1.94,1.96-.63.61-1.27,1.21-2.06,1.96Z"/>
      <path class="cls-1" d="m108.69,106.05c2.94,0,5.88,0,8.83,0,1.38,0,2.12.59,2.15,1.66.02,1.11-.75,1.74-2.18,1.74-5.92,0-11.84,0-17.76,0-1.35,0-2.14-.62-2.17-1.66-.03-1.08.79-1.74,2.19-1.74,2.98,0,5.95,0,8.93,0Z"/>
      <path class="cls-1" d="m116.31,123.06c-2.73,0-5.46,0-8.19,0-1.25,0-2.03-.65-2.05-1.67-.02-1.02.76-1.72,1.99-1.73,5.46-.01,10.92,0,16.37,0,1.27,0,2.01.64,2.03,1.68.02,1.08-.74,1.72-2.08,1.72-2.69,0-5.39,0-8.08,0Z"/>
      <path class="cls-1" d="m117.11,99.24c2.45,0,4.89,0,7.34,0,1.28,0,2.01.63,2.03,1.67.01,1.05-.73,1.72-1.98,1.72-4.89.01-9.78,0-14.67,0-1.25,0-2.03-.66-2.04-1.68-.02-1.05.78-1.71,2.1-1.72,2.41,0,4.82,0,7.23,0Z"/>
      <path class="cls-1" d="m118.88,116.26c-1.88,0-3.76,0-5.64,0-1.26,0-2.03-.64-2.06-1.65-.03-1.05.77-1.74,2.08-1.74,3.72,0,7.44,0,11.16,0,1.28,0,2.02.62,2.04,1.66.02,1.08-.73,1.73-2.07,1.74-1.84,0-3.69,0-5.53,0Z"/>
      <path class="cls-1" d="m105.3,126.48c1.84,0,3.69,0,5.53,0,1.27,0,2.01.63,2.03,1.67.01,1.05-.72,1.72-1.98,1.72-3.79.01-7.58.01-11.38,0-1.17,0-1.92-.68-1.94-1.67-.02-1.02.77-1.71,1.99-1.72,1.91-.01,3.83,0,5.74,0Z"/>
      <path class="cls-1" d="m121.38,129.88c-1.1,0-2.2.02-3.3,0-1.07-.03-1.8-.74-1.8-1.7,0-.95.74-1.67,1.81-1.69,2.2-.03,4.39-.03,6.59,0,1.09.01,1.79.72,1.78,1.7,0,.98-.7,1.65-1.8,1.68-1.1.03-2.2,0-3.3,0Z"/>
      <path class="cls-1" d="m102.67,112.86c1.1,0,2.2-.02,3.29,0,1.1.03,1.79.72,1.79,1.69,0,.98-.69,1.68-1.79,1.69-2.2.03-4.39.03-6.59,0-1.07-.01-1.81-.74-1.81-1.69,0-.95.73-1.66,1.81-1.69,1.1-.03,2.2,0,3.29,0Z"/>
      <path class="cls-1" d="m100.9,102.63c-.57,0-1.14.04-1.7,0-.94-.08-1.61-.78-1.63-1.65-.02-.91.68-1.68,1.67-1.71,1.17-.04,2.34-.05,3.51,0,.96.04,1.59.74,1.61,1.65.02.9-.6,1.63-1.54,1.71-.63.06-1.27.01-1.91.01h0Z"/>
      <path class="cls-1" d="m123.86,109.44c-.28,0-.57.02-.85,0-.94-.09-1.6-.79-1.62-1.66-.02-.91.68-1.65,1.67-1.71.6-.04,1.21-.04,1.81,0,.95.07,1.59.76,1.6,1.66.01.94-.65,1.64-1.66,1.72-.32.03-.64,0-.96,0,0,0,0,0,0,0Z"/>
      <path class="cls-1" d="m100.07,123.06c-.25,0-.5.01-.74,0-1.02-.06-1.72-.72-1.76-1.64-.03-.94.7-1.69,1.75-1.75.49-.03.99-.02,1.49,0,1.16.05,1.87.73,1.84,1.75-.03.98-.72,1.6-1.84,1.64-.25,0-.5,0-.74,0Z"/>
      <path class="cls-1" d="m72.88,109.46c-2.98,0-5.95,0-8.93,0-1.35,0-2.12-.62-2.14-1.68-.01-1.06.77-1.72,2.1-1.72,5.95,0,11.91,0,17.86,0,1.34,0,2.13.63,2.14,1.69.01,1.07-.76,1.71-2.1,1.71-2.98,0-5.95,0-8.93,0Z"/>
      <path class="cls-1" d="m65.21,123.07c-2.73,0-5.46,0-8.19,0-1.26,0-2.01-.65-2.01-1.69,0-1.03.76-1.71,2.01-1.71,5.46-.01,10.92-.01,16.37,0,1.25,0,2.01.68,2.01,1.71,0,1.04-.75,1.68-2.01,1.69-2.73,0-5.46,0-8.19,0Z"/>
      <path class="cls-1" d="m64.46,99.25c2.37,0,4.75,0,7.12,0,1.34,0,2.12.64,2.12,1.7,0,1.06-.77,1.7-2.12,1.7-4.82,0-9.64,0-14.46,0-1.35,0-2.12-.63-2.12-1.69,0-1.06.78-1.7,2.12-1.7,2.45,0,4.89,0,7.34,0Z"/>
      <path class="cls-1" d="m62.66,116.27c-1.88,0-3.76,0-5.64,0-1.26,0-2.01-.65-2.02-1.69,0-1.03.76-1.7,2.01-1.71,3.76-.01,7.51-.01,11.27,0,1.25,0,2.01.67,2.01,1.7,0,1.04-.75,1.69-2.01,1.69-1.88.01-3.76,0-5.64,0Z"/>
      <path class="cls-1" d="m76.27,129.89c-1.88,0-3.76,0-5.63,0-1.26,0-2.01-.66-2.01-1.69,0-1.03.76-1.7,2.01-1.7,3.76-.01,7.51-.01,11.27,0,1.25,0,2.01.67,2.01,1.7,0,1.03-.75,1.68-2.01,1.69-1.88.01-3.76,0-5.63,0Z"/>
      <path class="cls-1" d="m78.82,116.26c-1.1,0-2.2.02-3.29,0-1.09-.03-1.8-.72-1.8-1.69,0-.96.71-1.68,1.8-1.69,2.2-.03,4.39-.03,6.59,0,1.09.02,1.8.74,1.8,1.7,0,.97-.71,1.66-1.8,1.68-1.1.03-2.2,0-3.29,0Z"/>
      <path class="cls-1" d="m60.1,129.88c-1.1,0-2.2.02-3.3,0-1.09-.03-1.8-.72-1.8-1.69,0-.96.72-1.68,1.8-1.69,2.2-.03,4.39-.03,6.59,0,1.09.02,1.8.74,1.8,1.7,0,.97-.71,1.65-1.8,1.68-1.1.03-2.2,0-3.3,0Z"/>
      <path class="cls-1" d="m80.49,102.64c-.6,0-1.21.04-1.81,0-.93-.08-1.6-.82-1.55-1.71.05-.94.59-1.57,1.5-1.64,1.27-.09,2.56-.1,3.82.01.92.08,1.46.74,1.44,1.68-.02.94-.57,1.53-1.5,1.64-.63.08-1.27.01-1.91.02Z"/>
      <path class="cls-1" d="m57.55,109.46c-.11,0-.21,0-.32,0-1.44,0-2.22-.61-2.22-1.7,0-1.08.8-1.69,2.23-1.7.35,0,.71-.01,1.06,0,1.09.06,1.8.74,1.8,1.7,0,.97-.71,1.64-1.8,1.69-.25.01-.5,0-.74,0Z"/>
      <path class="cls-1" d="m81.42,123.07c-1.78,0-2.56-.49-2.59-1.64-.04-1.19.82-1.76,2.6-1.76.21,0,.43,0,.64,0,1.14.06,1.88.78,1.85,1.77-.04.96-.75,1.59-1.86,1.63-.21,0-.43,0-.64,0Z"/>
    </g>
  </g>
</svg>