<?xml version="1.0" encoding="UTF-8"?>
<svg id="Layer_2" data-name="Layer 2" xmlns="http://www.w3.org/2000/svg" viewBox="0 0 181.46 181.46">
  <defs>
    <style>
      .cls-1 {
        fill: #fff;
      }

      .cls-2 {
        fill: none;
        stroke: #fff;
        stroke-miterlimit: 10;
        stroke-width: 2px;
      }

      .cls-3 {
        fill: #dc3024;
      }
    </style>
  </defs>
  <g id="Layer_1-2" data-name="Layer 1">
    <g>
      <circle class="cls-3" cx="90.73" cy="90.73" r="90.73"/>
      <circle class="cls-2" cx="90.73" cy="90.73" r="80.66"/>
      <g>
        <path class="cls-1" d="m50.59,41.32c26.77,0,53.53,0,80.3,0,.06.03.11.08.17.1,4.52,1.2,6.59,3.89,6.59,8.55,0,23.58,0,47.16,0,70.74,0,5.33-3.25,8.57-8.61,8.57-1.41,0-2.82,0-4.33,0,0,1.24,0,2.39,0,3.54,0,4.49-2.87,7.33-7.38,7.33-16.02,0-32.04,0-48.06,0-4.52,0-7.35-2.82-7.37-7.33,0-1.15,0-2.3,0-3.55-.47,0-.82,0-1.17,0-2.9,0-5.79.01-8.69,0-4.9-.03-8.21-3.37-8.22-8.28,0-4.76,0-9.52,0-14.28,0-19.04,0-38.09,0-57.13,0-2.88,1.04-5.24,3.43-6.84.99-.66,2.22-.96,3.34-1.42Zm-3.68,18.53c0,.43,0,.74,0,1.06,0,19.98,0,39.95,0,59.93,0,3.41,1.91,5.34,5.3,5.35,2.86,0,5.73-.03,8.59.02.89.02,1.13-.23,1.13-1.12-.04-7.14-.02-14.28-.01-21.42,0-.74.01-1.49.18-2.2.74-3.26,3.46-5.31,7-5.32,16.12,0,32.23,0,48.35,0,4.42,0,7.27,2.89,7.28,7.33,0,7.17,0,14.35,0,21.52v1.19c1.58,0,3.02,0,4.46,0,3.47,0,5.39-1.91,5.39-5.35,0-19.98,0-39.95,0-59.93v-1.06H46.91Zm46.39,39.38c-8.04,0-16.08,0-24.12,0-2.7,0-4.2,1.46-4.2,4.15,0,9.84,0,19.68,0,29.52,0,2.7,1.49,4.16,4.19,4.16,16.08,0,32.16,0,48.23,0,2.72,0,4.21-1.5,4.21-4.25,0-9.78,0-19.55,0-29.33,0-2.8-1.47-4.26-4.3-4.26-8.01,0-16.01,0-24.02,0Zm-46.37-42.57h87.62c0-2.31,0-4.56,0-6.81,0-3.6-1.85-5.44-5.47-5.44-25.57,0-51.13,0-76.7,0-.32,0-.64,0-.96,0-2.29.11-4.34,1.91-4.46,4.18-.14,2.66-.03,5.33-.03,8.07Z"/>
        <path class="cls-1" d="m87.91,76.43c2.22,0,4.44,0,6.65,0,1.32,0,1.99.54,1.98,1.56-.02,1.01-.69,1.53-2.03,1.53-4.44,0-8.87,0-13.31,0-1.27,0-2.02-.61-2.01-1.58.02-.95.73-1.5,1.96-1.51,2.25,0,4.5,0,6.75,0Z"/>
        <path class="cls-1" d="m94.46,69.51c-2.15,0-4.31,0-6.46,0-1.13,0-1.84-.61-1.84-1.53,0-.91.72-1.55,1.83-1.55,4.37,0,8.74-.01,13.12,0,1.11,0,1.82.66,1.79,1.58-.03.9-.7,1.49-1.77,1.49-2.22.01-4.44,0-6.65,0Z"/>
        <path class="cls-1" d="m71.9,79.52c-1.19,0-2.38.02-3.57,0-1.13-.02-1.78-.64-1.75-1.61.03-.92.67-1.46,1.78-1.47,2.41-.01,4.82-.01,7.23,0,1.14,0,1.82.61,1.81,1.54,0,.92-.71,1.52-1.84,1.54-1.22.02-2.44,0-3.66,0Z"/>
        <path class="cls-1" d="m90.16,89.51c-.77,0-1.54.03-2.31,0-1.04-.04-1.72-.71-1.69-1.59.03-.86.68-1.45,1.69-1.47,1.54-.02,3.08-.02,4.62,0,1.01.01,1.66.6,1.69,1.47.03.88-.66,1.55-1.69,1.59-.77.03-1.54,0-2.31,0Z"/>
        <path class="cls-1" d="m70.57,69.51c-.8,0-1.61.02-2.41,0-.95-.04-1.55-.62-1.57-1.47-.03-.9.58-1.57,1.56-1.59,1.6-.04,3.21-.04,4.82,0,.99.02,1.6.68,1.57,1.58-.02.85-.62,1.45-1.56,1.49-.8.03-1.61,0-2.41,0Z"/>
        <path class="cls-1" d="m60.79,76.44c.8,0,1.61-.02,2.41,0,.93.03,1.54.65,1.55,1.5.01.86-.57,1.53-1.5,1.56-1.64.05-3.27.05-4.91,0-.96-.02-1.6-.75-1.56-1.61.04-.84.67-1.42,1.61-1.45.8-.03,1.6,0,2.41,0Z"/>
        <path class="cls-1" d="m60.75,69.51c-.77,0-1.54.02-2.31,0-1-.03-1.64-.62-1.67-1.5-.02-.87.63-1.55,1.6-1.57,1.6-.03,3.21-.04,4.81,0,.97.02,1.59.71,1.56,1.6-.03.85-.64,1.44-1.58,1.47-.8.03-1.6,0-2.41,0Z"/>
        <path class="cls-1" d="m80.37,69.51c-.8,0-1.61.02-2.41,0-.94-.03-1.55-.63-1.57-1.48-.03-.89.59-1.56,1.57-1.59,1.6-.04,3.21-.04,4.82,0,.96.02,1.62.72,1.59,1.58-.03.84-.65,1.45-1.58,1.48-.8.03-1.6,0-2.41,0Z"/>
        <path class="cls-1" d="m70.64,86.44c.8,0,1.61-.03,2.41,0,.9.04,1.46.61,1.5,1.43.03.83-.48,1.54-1.35,1.57-1.76.07-3.53.07-5.29,0-.86-.04-1.38-.78-1.3-1.61.08-.85.58-1.35,1.44-1.39.86-.04,1.73,0,2.6,0h0Z"/>
        <path class="cls-1" d="m60.82,86.44c.8,0,1.6-.03,2.41,0,.91.04,1.47.59,1.52,1.42.05.87-.5,1.57-1.43,1.6-1.7.06-3.4.06-5.1,0-.9-.03-1.49-.79-1.44-1.61.05-.79.66-1.35,1.54-1.41.06,0,.13,0,.19,0,.77,0,1.54,0,2.31,0,0,0,0,0,0,0Z"/>
        <path class="cls-1" d="m80.38,89.5c-.8,0-1.61.03-2.4,0-1.01-.05-1.6-.67-1.59-1.57.02-.89.64-1.47,1.66-1.48,1.54-.02,3.08-.02,4.62,0,1.02.01,1.66.59,1.7,1.45.04.89-.64,1.56-1.67,1.6-.77.03-1.54,0-2.31,0Z"/>
        <path class="cls-1" d="m110.04,79.52c-.58,0-1.16.03-1.73,0-.98-.06-1.59-.7-1.57-1.59.02-.85.63-1.45,1.57-1.47,1.16-.03,2.31-.03,3.47,0,.92.03,1.53.68,1.53,1.52,0,.79-.58,1.45-1.44,1.53-.61.05-1.22.01-1.83.01,0,0,0,0,0,0Z"/>
        <path class="cls-1" d="m101.7,76.44c.55,0,1.09-.02,1.64,0,.93.04,1.54.64,1.56,1.49.02.82-.53,1.51-1.39,1.56-1.25.06-2.5.07-3.75,0-.86-.05-1.39-.76-1.37-1.57.03-.81.61-1.41,1.48-1.46.61-.03,1.22,0,1.83,0Z"/>
        <path class="cls-1" d="m73.44,117.61c3.07,2.42,6.04,4.78,9.01,7.13.43.34.86.67,1.28,1.02.88.73,1.03,1.61.41,2.35-.56.68-1.49.73-2.32.07-2.63-2.06-5.25-4.14-7.87-6.22-1.29-1.02-2.58-2.02-3.86-3.06-1.16-.94-1.12-1.99.1-2.83,3.89-2.68,7.79-5.35,11.69-8.01.88-.6,1.79-.5,2.31.21.57.77.38,1.67-.56,2.31-3.2,2.21-6.41,4.4-9.62,6.6-.16.11-.3.22-.59.43Z"/>
        <path class="cls-1" d="m113.17,117.59c-1.11-.76-2.13-1.47-3.16-2.17-2.3-1.58-4.61-3.16-6.91-4.74-1.03-.71-1.3-1.54-.77-2.34.54-.82,1.48-.9,2.53-.19,3.82,2.61,7.63,5.22,11.44,7.85,1.32.91,1.38,1.97.14,2.95-3.87,3.08-7.76,6.14-11.65,9.2-.91.71-1.89.63-2.44-.16-.5-.72-.32-1.57.55-2.26,3.02-2.4,6.05-4.78,9.07-7.17.37-.29.74-.59,1.2-.96Z"/>
        <path class="cls-1" d="m98.29,105.37c-.06.27-.15.71-.27,1.14-2.17,8.12-4.35,16.23-6.53,24.35-.06.22-.11.44-.19.65-.31.86-1.1,1.3-1.89,1.07-.8-.23-1.27-1.01-1.04-1.9.64-2.49,1.31-4.96,1.97-7.44,1.61-6.01,3.22-12.02,4.83-18.03.3-1.12.91-1.63,1.77-1.53.77.09,1.32.72,1.34,1.69Z"/>
        <path class="cls-1" d="m106.21,49.02c6.56,0,13.11,0,19.67,0,.32,0,.65-.02.96.03.8.13,1.27.63,1.32,1.43.05.76-.35,1.3-1.07,1.53-.36.11-.76.11-1.14.11-13.18,0-26.35,0-39.53,0-.35,0-.72.02-1.05-.07-.81-.22-1.26-.78-1.17-1.64.08-.8.58-1.27,1.38-1.36.32-.04.64-.02.96-.02,6.56,0,13.11,0,19.67,0Z"/>
        <path class="cls-1" d="m75.5,54.45c-2.16-.02-3.9-1.8-3.87-3.96.04-2.16,1.81-3.86,4-3.82,2.13.04,3.83,1.78,3.82,3.91-.01,2.16-1.78,3.9-3.95,3.88Zm.09-5.03c-.4.51-.85.84-.8,1.08.07.33.5.58.78.86.26-.27.69-.51.73-.81.04-.27-.35-.6-.71-1.13Z"/>
        <path class="cls-1" d="m57.15,46.67c2.19-.02,3.93,1.69,3.94,3.87.01,2.13-1.69,3.88-3.81,3.91-2.18.04-3.96-1.67-3.99-3.83-.03-2.18,1.68-3.93,3.86-3.95Zm1.18,3.91c-.51-.38-.82-.78-1.09-.76-.3.02-.57.43-.86.67.27.29.5.73.83.81.24.06.59-.36,1.12-.73Z"/>
        <path class="cls-1" d="m66.37,46.67c2.18,0,3.91,1.74,3.9,3.91,0,2.16-1.77,3.89-3.95,3.87-2.13-.02-3.84-1.73-3.85-3.87-.01-2.18,1.71-3.91,3.89-3.91Zm.02,2.75c-.38.52-.78.83-.76,1.1.02.3.44.56.69.84.29-.27.73-.5.81-.82.06-.23-.37-.58-.74-1.11Z"/>
      </g>
    </g>
  </g>
</svg>